<svg height="512" viewBox="0 0 512 512" width="512" xmlns="http://www.w3.org/2000/svg"><path fill="#41b883" d="M464.022 232H464a24 24 0 00-23.98 24.021 184.063 184.063 0 01-289.527 150.688c-83.1-58.188-103.369-173.136-45.181-256.237S278.449 47.1 361.549 105.29A184.078 184.078 0 01395.561 136h-67.54a24 24 0 000 48h112a24 24 0 0024-24V48a24 24 0 00-48 0v39.967a234.175 234.175 0 00-26.94-22 231.982 231.982 0 10-266.119 380.061 230.285 230.285 0 00132.567 42.015 234.971 234.971 0 0040.776-3.585 232.025 232.025 0 00191.716-228.479A24 24 0 00464.022 232z"/></svg>
